<svg id="Capa_1" enable-background="new 0 0 512 512" height="512" viewBox="0 0 512 512" width="512" xmlns="http://www.w3.org/2000/svg"><g><g><g><path d="m181.774 32.997c-16.394 12.791-29.403 29.72-37.46 49.216-10.884-5.32-23.112-8.315-36.043-8.315-45.393 0-82.191 36.798-82.191 82.192 0 45.393 36.798 82.191 82.191 82.191 2.191 0 4.354-.111 6.502-.28l34.929 249.217c1.389 9.91 9.866 17.282 19.873 17.282h172.851c10.006 0 18.484-7.372 19.873-17.282l34.929-249.217c2.147.168 4.311.28 6.502.28 45.393 0 82.191-36.798 82.191-82.191s-36.798-82.192-82.191-82.192c-12.931 0-25.159 2.994-36.043 8.315-18.122-43.849-61.292-74.713-111.687-74.713-27.988 0-53.748 9.52-74.226 25.497" fill="#f2f5fb"/></g></g><g><g><path d="m403.729 73.898c-5.138 0-10.162.48-15.038 1.383 38.245 7.038 67.229 40.527 67.229 80.808 0 45.393-36.798 82.191-82.191 82.191-2.191 0-4.355-.111-6.502-.28l-34.929 249.217c-1.389 9.91-9.866 17.282-19.873 17.282h30c10.006 0 18.484-7.372 19.873-17.282l34.929-249.217c2.147.168 4.311.28 6.502.28 45.393 0 82.191-36.798 82.191-82.191 0-45.392-36.798-82.191-82.191-82.191z" fill="#e6e8f0"/></g></g><g><g><path d="m142.9 438.683 6.802 48.535c1.389 9.91 9.866 17.282 19.872 17.282h172.851c10.006 0 18.484-7.372 19.873-17.282l6.802-48.535z" fill="#cee4f8"/></g></g><g><g><path d="m339.101 438.683-6.802 48.535c-1.389 9.91-9.866 17.282-19.873 17.282h30c10.006 0 18.484-7.372 19.873-17.282l6.802-48.535z" fill="#93ddfe"/></g></g><path d="m403.729 66.398c-11.169 0-21.981 2.006-32.236 5.973-21.383-44.207-65.918-72.371-115.493-72.371-14.497 0-28.727 2.402-42.293 7.138-3.911 1.366-5.974 5.643-4.609 9.553 1.365 3.911 5.643 5.972 9.553 4.609 11.974-4.18 24.54-6.3 37.349-6.3 46.043 0 87.162 27.507 104.755 70.078.008.02.028.042.038.062 5.652 13.68 8.523 28.181 8.523 43.177 0 4.142 3.358 7.5 7.5 7.5s7.5-3.358 7.5-7.5c0-14.508-2.38-28.612-7.066-42.081 8.429-3.209 17.306-4.837 26.479-4.837 41.185 0 74.691 33.506 74.691 74.691s-33.506 74.691-74.691 74.691c-13.738 0-27.163-3.758-38.824-10.869-3.537-2.158-8.152-1.038-10.308 2.499-2.157 3.537-1.038 8.152 2.499 10.308 9.725 5.93 20.468 9.915 31.644 11.802l-26.161 186.662h-42.839l17.374-137.41c.52-4.109-2.391-7.862-6.5-8.382-4.114-.512-7.862 2.392-8.382 6.5l-17.612 139.292h-41.12v-137.055c0-4.142-3.358-7.5-7.5-7.5s-7.5 3.358-7.5 7.5v137.055h-41.12l-17.612-139.292c-.52-4.109-4.27-7.018-8.382-6.5-4.109.52-7.02 4.272-6.5 8.382l17.374 137.41h-42.839l-26.158-186.643c8.007-1.343 15.77-3.773 23.202-7.276 3.747-1.766 5.353-6.234 3.587-9.982-1.765-3.747-6.233-5.352-9.981-3.587-9.977 4.702-20.676 7.086-31.799 7.086-41.185 0-74.691-33.506-74.691-74.691s33.506-74.691 74.691-74.691c9.173 0 18.05 1.628 26.479 4.837-4.686 13.47-7.066 27.573-7.066 42.081 0 4.142 3.358 7.5 7.5 7.5s7.5-3.358 7.5-7.5c0-14.997 2.872-29.498 8.524-43.178.01-.02.029-.042.037-.062 8.638-20.9 23.186-38.594 42.074-51.167 3.448-2.295 4.382-6.951 2.087-10.399s-6.951-4.383-10.399-2.087c-19.242 12.81-34.507 30.32-44.497 50.949-10.257-3.967-21.068-5.974-32.238-5.974-49.456 0-89.691 40.235-89.691 89.691s40.235 89.691 89.691 89.691h.019l33.984 242.479c1.896 13.534 13.633 23.741 27.3 23.741h42.044c4.142 0 7.5-3.358 7.5-7.5s-3.358-7.5-7.5-7.5h-42.044c-6.23 0-11.581-4.653-12.445-10.823l-5.605-39.994h208.952l-5.605 39.994c-.865 6.17-6.215 10.823-12.445 10.823h-100.81c-4.142 0-7.5 3.358-7.5 7.5s3.358 7.5 7.5 7.5h100.808c13.667 0 25.403-10.207 27.3-23.741l33.984-242.479h.019c49.456 0 89.691-40.235 89.691-89.691s-40.235-89.692-89.691-89.692z"/></g></svg>